<svg xmlns="http://www.w3.org/2000/svg" xmlns:xlink="http://www.w3.org/1999/xlink" contentStyleType="text/css" data-diagram-type="CLASS" height="424px" preserveAspectRatio="none" style="width: 273px; height: 424px; background: rgb(27, 27, 27); --linkover-transition-duration: 300ms;" version="1.1" viewBox="0 0 273 424" width="273px" zoomAndPan="magnify"><defs/><g><rect fill="#1B1B1B" height="424" style="stroke:none;stroke-width:1;" width="273" x="0" y="0"/><!--class DataLoader--><g class="entity" data-qualified-name="DataLoader" data-source-line="2" id="ent0002"><rect fill="#313139" height="96.8906" rx="2.5" ry="2.5" style="stroke:#E7E7E7;stroke-width:0.5;" width="259.6113" x="7" y="7"/><ellipse cx="91.7417" cy="23" fill="#2E5233" rx="11" ry="11" style="stroke:#E7E7E7;stroke-width:1;"/><path d="M94.7104,28.6406 Q94.1323,28.9375 93.4917,29.0781 Q92.8511,29.2344 92.1479,29.2344 Q89.6479,29.2344 88.3198,27.5938 Q87.0073,25.9375 87.0073,22.8125 Q87.0073,19.6875 88.3198,18.0313 Q89.6479,16.375 92.1479,16.375 Q92.8511,16.375 93.4917,16.5313 Q94.1479,16.6875 94.7104,16.9844 L94.7104,19.7031 Q94.0854,19.125 93.4917,18.8594 Q92.8979,18.5781 92.2729,18.5781 Q90.9292,18.5781 90.2417,19.6563 Q89.5542,20.7188 89.5542,22.8125 Q89.5542,24.9063 90.2417,25.9844 Q90.9292,27.0469 92.2729,27.0469 Q92.8979,27.0469 93.4917,26.7813 Q94.0854,26.5 94.7104,25.9219 L94.7104,28.6406 Z " fill="#FFFFFF"/><text fill="#FFFFFF" font-family="sans-serif" font-size="14" lengthAdjust="spacing" textLength="81.6279" x="112.2417" y="27.8467">DataLoader</text><line style="stroke:#E7E7E7;stroke-width:0.5;" x1="8" x2="265.6113" y1="39" y2="39"/><line style="stroke:#E7E7E7;stroke-width:0.5;" x1="8" x2="265.6113" y1="47" y2="47"/><g data-visibility-modifier="PUBLIC_METHOD"><ellipse cx="18" cy="60.6484" fill="#84BE84" rx="3" ry="3" style="stroke:#038048;stroke-width:1;"/></g><text fill="#FFFFFF" font-family="sans-serif" font-size="14" lengthAdjust="spacing" textLength="129.1309" x="27" y="63.9951">load_mimic_data()</text><g data-visibility-modifier="PUBLIC_METHOD"><ellipse cx="18" cy="76.9453" fill="#84BE84" rx="3" ry="3" style="stroke:#038048;stroke-width:1;"/></g><text fill="#FFFFFF" font-family="sans-serif" font-size="14" lengthAdjust="spacing" textLength="168.376" x="27" y="80.292">preprocess_timeseries()</text><g data-visibility-modifier="PUBLIC_METHOD"><ellipse cx="18" cy="93.2422" fill="#84BE84" rx="3" ry="3" style="stroke:#038048;stroke-width:1;"/></g><text fill="#FFFFFF" font-family="sans-serif" font-size="14" lengthAdjust="spacing" textLength="233.6113" x="27" y="96.5889">create_windows(hours_ahead=6)</text></g><!--class ModelTrainer--><g class="entity" data-qualified-name="ModelTrainer" data-source-line="7" id="ent0003"><rect fill="#313139" height="96.8906" rx="2.5" ry="2.5" style="stroke:#E7E7E7;stroke-width:0.5;" width="136.7422" x="68.43" y="163.89"/><ellipse cx="89.1403" cy="179.89" fill="#2E5233" rx="11" ry="11" style="stroke:#E7E7E7;stroke-width:1;"/><path d="M92.109,185.5306 Q91.5309,185.8275 90.8903,185.9681 Q90.2496,186.1244 89.5465,186.1244 Q87.0465,186.1244 85.7184,184.4838 Q84.4059,182.8275 84.4059,179.7025 Q84.4059,176.5775 85.7184,174.9213 Q87.0465,173.265 89.5465,173.265 Q90.2496,173.265 90.8903,173.4213 Q91.5465,173.5775 92.109,173.8744 L92.109,176.5931 Q91.484,176.015 90.8903,175.7494 Q90.2965,175.4681 89.6715,175.4681 Q88.3278,175.4681 87.6403,176.5463 Q86.9528,177.6088 86.9528,179.7025 Q86.9528,181.7963 87.6403,182.8744 Q88.3278,183.9369 89.6715,183.9369 Q90.2965,183.9369 90.8903,183.6713 Q91.484,183.39 92.109,182.8119 L92.109,185.5306 Z " fill="#FFFFFF"/><text fill="#FFFFFF" font-family="sans-serif" font-size="14" lengthAdjust="spacing" textLength="92.0527" x="104.4092" y="184.7367">ModelTrainer</text><line style="stroke:#E7E7E7;stroke-width:0.5;" x1="69.43" x2="204.1722" y1="195.89" y2="195.89"/><line style="stroke:#E7E7E7;stroke-width:0.5;" x1="69.43" x2="204.1722" y1="203.89" y2="203.89"/><g data-visibility-modifier="PUBLIC_METHOD"><ellipse cx="79.43" cy="217.5384" fill="#84BE84" rx="3" ry="3" style="stroke:#038048;stroke-width:1;"/></g><text fill="#FFFFFF" font-family="sans-serif" font-size="14" lengthAdjust="spacing" textLength="106.4834" x="88.43" y="220.8851">train_xgboost()</text><g data-visibility-modifier="PUBLIC_METHOD"><ellipse cx="79.43" cy="233.8353" fill="#84BE84" rx="3" ry="3" style="stroke:#038048;stroke-width:1;"/></g><text fill="#FFFFFF" font-family="sans-serif" font-size="14" lengthAdjust="spacing" textLength="110.7422" x="88.43" y="237.182">cross_validate()</text><g data-visibility-modifier="PUBLIC_METHOD"><ellipse cx="79.43" cy="250.1322" fill="#84BE84" rx="3" ry="3" style="stroke:#038048;stroke-width:1;"/></g><text fill="#FFFFFF" font-family="sans-serif" font-size="14" lengthAdjust="spacing" textLength="94.2881" x="88.43" y="253.4789">save_model()</text></g><!--class Evaluator--><g class="entity" data-qualified-name="Evaluator" data-source-line="12" id="ent0004"><rect fill="#313139" height="96.8906" rx="2.5" ry="2.5" style="stroke:#E7E7E7;stroke-width:0.5;" width="144.7061" x="64.45" y="320.78"/><ellipse cx="100.0797" cy="336.78" fill="#2E5233" rx="11" ry="11" style="stroke:#E7E7E7;stroke-width:1;"/><path d="M103.0484,342.4206 Q102.4703,342.7175 101.8297,342.8581 Q101.1891,343.0144 100.4859,343.0144 Q97.9859,343.0144 96.6578,341.3738 Q95.3453,339.7175 95.3453,336.5925 Q95.3453,333.4675 96.6578,331.8113 Q97.9859,330.155 100.4859,330.155 Q101.1891,330.155 101.8297,330.3113 Q102.4859,330.4675 103.0484,330.7644 L103.0484,333.4831 Q102.4234,332.905 101.8297,332.6394 Q101.2359,332.3581 100.6109,332.3581 Q99.2672,332.3581 98.5797,333.4363 Q97.8922,334.4988 97.8922,336.5925 Q97.8922,338.6863 98.5797,339.7644 Q99.2672,340.8269 100.6109,340.8269 Q101.2359,340.8269 101.8297,340.5613 Q102.4234,340.28 103.0484,339.7019 L103.0484,342.4206 Z " fill="#FFFFFF"/><text fill="#FFFFFF" font-family="sans-serif" font-size="14" lengthAdjust="spacing" textLength="66.8623" x="118.6641" y="341.6267">Evaluator</text><line style="stroke:#E7E7E7;stroke-width:0.5;" x1="65.45" x2="208.1561" y1="352.78" y2="352.78"/><line style="stroke:#E7E7E7;stroke-width:0.5;" x1="65.45" x2="208.1561" y1="360.78" y2="360.78"/><g data-visibility-modifier="PUBLIC_METHOD"><ellipse cx="75.45" cy="374.4284" fill="#84BE84" rx="3" ry="3" style="stroke:#038048;stroke-width:1;"/></g><text fill="#FFFFFF" font-family="sans-serif" font-size="14" lengthAdjust="spacing" textLength="88.416" x="84.45" y="377.7751">plot_roc_pr()</text><g data-visibility-modifier="PUBLIC_METHOD"><ellipse cx="75.45" cy="390.7253" fill="#84BE84" rx="3" ry="3" style="stroke:#038048;stroke-width:1;"/></g><text fill="#FFFFFF" font-family="sans-serif" font-size="14" lengthAdjust="spacing" textLength="108.2402" x="84.45" y="394.072">shap_analysis()</text><g data-visibility-modifier="PUBLIC_METHOD"><ellipse cx="75.45" cy="407.0222" fill="#84BE84" rx="3" ry="3" style="stroke:#038048;stroke-width:1;"/></g><text fill="#FFFFFF" font-family="sans-serif" font-size="14" lengthAdjust="spacing" textLength="118.7061" x="84.45" y="410.3689">clinical_metrics()</text></g><!--link DataLoader to ModelTrainer--><g class="link" data-entity-1="ent0002" data-entity-2="ent0003" data-link-type="dependency" data-source-line="17" id="lnk5"><path codeLine="17" d="M136.81,104.18 C136.81,123.02 136.81,138.63 136.81,157.49" fill="none" id="DataLoader-to-ModelTrainer" style="stroke:#E7E7E7;stroke-width:1;"/><polygon fill="#E7E7E7" points="136.81,163.49,140.81,154.49,136.81,158.49,132.81,154.49,136.81,163.49" style="stroke:#E7E7E7;stroke-width:1;"/></g><!--link ModelTrainer to Evaluator--><g class="link" data-entity-1="ent0003" data-entity-2="ent0004" data-link-type="dependency" data-source-line="18" id="lnk6"><path codeLine="18" d="M136.81,261.07 C136.81,279.91 136.81,295.52 136.81,314.38" fill="none" id="ModelTrainer-to-Evaluator" style="stroke:#E7E7E7;stroke-width:1;"/><polygon fill="#E7E7E7" points="136.81,320.38,140.81,311.38,136.81,315.38,132.81,311.38,136.81,320.38" style="stroke:#E7E7E7;stroke-width:1;"/></g><!--SRC=[LOynRm8n38Nt-nNfTgXYxKQbYfwwG0V4Rhc9sxEKd2CxGAkA_quE3bgMoF6pt_ly4EYJ1tARRhbzUNzRTSv7D6lEhtl5WYl1GEf-6-SUOwqXSM8FeKhjR6ncfQpYoGmA9p9I9hj8NWaBmO6780ThUzcf0VQ4OV4qQuvJobe2nQrYvPXoolY1xwyF4IjNAwa1UunSa-dICzmJf76x_NFhwimEYqnMEKg1YWTPfwKUC-20ySVuYXbvO8yH4XLbRsUtVxVFvyztaCqTyQZUGay0]--></g></svg>